<?xml version="1.0" encoding="UTF-8" standalone="no"?>
<!-- Created with Inkscape (http://www.inkscape.org/) -->

<svg
    xmlns:dc="http://purl.org/dc/elements/1.1/"
    xmlns:cc="http://creativecommons.org/ns#"
    xmlns:rdf="http://www.w3.org/1999/02/22-rdf-syntax-ns#"
    xmlns:svg="http://www.w3.org/2000/svg"
    xmlns="http://www.w3.org/2000/svg"
    xmlns:sodipodi="http://sodipodi.sourceforge.net/DTD/sodipodi-0.dtd"
    xmlns:inkscape="http://www.inkscape.org/namespaces/inkscape"
    version="1.1"
    id="svg2"
    width="116.73974"
    height="100"
    viewBox="0 0 116.73974 99.999999"
    sodipodi:docname="troll.svg"
    inkscape:version="0.92.3 (2405546, 2018-03-11)">
  <metadata
      id="metadata8">
    <rdf:RDF>
      <cc:Work
          rdf:about="">
        <dc:format>image/svg+xml</dc:format>
        <dc:type
            rdf:resource="http://purl.org/dc/dcmitype/StillImage"/>
        <dc:title></dc:title>
      </cc:Work>
    </rdf:RDF>
  </metadata>
  <defs
      id="defs6"/>
  <sodipodi:namedview
      pagecolor="#ffffff"
      bordercolor="#666666"
      borderopacity="1"
      objecttolerance="10"
      gridtolerance="10"
      guidetolerance="10"
      inkscape:pageopacity="0"
      inkscape:pageshadow="2"
      inkscape:window-width="1868"
      inkscape:window-height="1028"
      id="namedview4"
      showgrid="false"
      inkscape:zoom="7.0071258"
      inkscape:cx="72.264529"
      inkscape:cy="49.226498"
      inkscape:window-x="26"
      inkscape:window-y="26"
      inkscape:window-maximized="1"
      inkscape:current-layer="svg2"/>
  <path
      style="fill:#000000;stroke-width:0.51403844"
      d="m 101.19544,87.277541 c 10.77881,-10.86742 19.70395,-26.046453 13.50621,-40.209834 -4.46782,-4.957825 -4.1496,-10.665528 -4.4429,-16.724648 -2.04209,-5.74223 -4.57794,-11.594684 -8.11007,-16.509629 -4.785109,-0.471672 -7.127509,6.32188 -9.970219,9.580995 -1.5,2.683149 -4.81859,-4.038158 -7.45146,-4.874473 -4.89096,-2.392944 -4.92802,-8.8018726 -11.23222,-9.2040966 -2.17315,-0.505178 -1.97681,-3.446628 -3.85258,-2.346239 -0.15331,-4.066074 -2.05763,-2.982852 -4.295805,-1.589856 -1.576596,-1.051633 -3.840139,-6.255888 -4.387065,-1.631101 -1.370439,-4.234237 -4.394323,-2.690306 -4.729958,0.164522 -1.915952,-1.428534 -7.809011,-7.376787 -5.156988,-1.137576 0.515787,3.597454 -9.160134,-2.113259 -4.817002,3.447693 -1.924184,-0.467574 -6.021309,0.501522 -3.925097,3.172016 -2.835784,-1.361434 -5.154116,2.0414826 -1.823482,3.2378466 -2.213259,-1.174553 -6.993222,-0.950519 -4.13966,2.533017 -2.649924,-0.235314 -7.402068,4.90379 -2.137699,4.283231 -2.214186,2.093735 -0.778389,4.805458 0.09087,4.74484 -2.510392,3.431896 -3.885922,13.413889 -9.609602,7.901678 -5.303889,-3.409849 -11.660247,-1.524405 -17.2927172,-3.323569 -4.711468,-2.747457 -9.042194,0.530449 -6.81705002,5.703397 0.64767302,7.953548 3.31484102,16.09545 9.62538722,21.367265 5.465919,5.387966 5.855038,13.860797 10.931598,19.586604 7.126266,9.000099 16.249351,16.835956 26.968797,21.179 13.923489,5.585266 30.004503,3.988886 43.128713,-3.001588 3.51121,-1.782531 6.85673,-3.898206 9.939999,-6.349495 z M 50.670275,97.42309 c 12.970087,1.475287 26.556666,1.943507 38.835126,-3.221471 3.00816,-0.87136 6.22819,-3.019075 1.48229,-1.907017 z m 5.524628,-2.647665 c -7.748984,-2.053151 -12.417132,-2.822317 -18.060827,-8.48321 1.394081,3.163394 3.991978,3.797838 4.017439,4.843876 3.181778,1.502192 9.603829,4.051082 10.697277,4.939932 -6.503465,-1.783469 -12.881033,-4.560228 -17.988561,-9.048428 1.56749,-0.411443 3.774597,1.786192 1.362263,-1.223086 -5.428288,-4.067188 -9.467487,-9.587346 -13.953968,-14.598442 -2.407242,1.507227 3.844597,5.499054 4.954216,7.501618 1.780743,2.506138 5.689129,5.474416 7.245244,7.10422 -6.273199,-2.385704 -10.158799,-9.219375 -14.064141,-14.5735 -4.530554,-7.421601 -7.062723,-18.125474 -0.983709,-25.426916 3.21156,-4.566485 8.875069,-6.007894 14.161219,-5.888457 -0.392494,-0.659359 -5.798153,-2.622452 -2.620695,-5.907685 2.097094,-2.247948 3.034322,-8.975134 6.078113,-8.366448 -4.872067,4.480218 3.368899,-0.559096 0.527816,-3.161817 0.347135,-6.0118 7.726411,-7.715294 12.44608,-5.628661 2.998682,0.686132 10.618958,4.481129 10.545118,3.503894 -4.579159,-3.297785 -11.304988,-4.474787 -15.777306,-6.054869 5.230351,-1.426207 9.346672,2.562848 13.945019,4.200626 5.783711,3.249897 6.239261,-5.329238 9.176671,-6.665579 -0.75866,3.721921 -3.308282,8.951423 -6.468812,8.330458 2.133233,1.753652 4.103292,10.287973 -0.398514,5.512986 -2.564324,-3.625946 -6.98093,-6.472039 -10.942759,-6.967436 -3.308643,-2.107238 -7.521456,-3.451188 -8.476673,1.003673 -5.086682,0.224452 -2.655846,10.647485 0.225086,4.555154 1.207907,-2.35281 7.411701,-1.53629 2.709894,0.256979 -4.190964,4.300509 5.121174,-2.429541 0.837613,1.237082 -4.602985,3.632615 -5.870156,10.897979 -5.752772,15.239872 -3.561602,-1.77008 1.372719,-8.282776 -0.987172,-8.068804 -3.156063,2.110181 2.070739,9.794805 -3.459646,8.608114 5.322632,1.601117 13.202946,3.733227 13.213799,10.558353 -2.648775,6.732251 -10.965642,2.247518 -14.937783,-0.737505 -2.904363,-1.747742 -8.005902,-5.528816 -10.717389,-2.780672 1.969683,0.289222 5.590433,0.246197 1.839417,2.105735 -3.430814,3.555106 1.487226,-3.549531 -2.045649,0.279355 -1.769284,2.04842 -1.426052,7.038679 0.540977,2.107457 1.041392,-2.416837 8.528052,-3.368737 3.50633,-0.291812 -5.896909,5.558886 -3.601811,15.183044 1.222742,20.654863 16.373605,20.514786 49.773541,25.364078 70.496321,8.721982 6.036799,-4.972282 9.498539,-12.792656 8.799509,-20.617375 0.94328,-4.646503 -1.05867,-10.238532 -3.14094,-13.162947 5.84686,-2.219425 -2.86377,-2.193623 -3.81169,0.92633 -3.348959,2.294491 -1.900029,-6.29199 -6.350629,-6.250197 -3.99351,-1.943075 9.324479,-7.601005 1.84801,-5.321956 -2.86936,1.64506 -6.20319,9.738165 -7.02892,2.708417 1.21599,-1.657251 1.78275,-11.335221 0.40911,-5.123835 -0.97269,5.586484 -0.5858,-4.681447 -2.34013,-6.214038 -2.41917,-5.048036 -7.3853,-8.785912 -12.90673,-9.710031 1.019,-1.626272 9.07243,1.914809 3.01526,-0.792301 -5.06632,-0.751172 0.0149,-5.56485 2.49667,-1.894437 7.69181,4.179454 14.46218,10.924842 16.83539,19.54386 5.366999,-2.96031 11.662729,2.672183 14.792739,6.831255 5.56284,8.565092 5.08358,20.089033 0.30349,28.886506 -1.8666,3.053042 -4.10935,6.394102 -6.23846,8.099812 1.03377,-4.912478 8.64607,-7.916239 5.77815,-13.446688 1.22547,-2.769279 1.13452,3.864402 2.24524,-1.253709 2.16717,-2.878816 0.7461,-7.010495 0.91894,-8.455067 0.84624,-1.922338 -0.57859,-6.744496 -0.8492,-1.911306 -2.3983,13.615795 -3.76664,14.778147 -8.55003,23.26845 0,0 -12.107029,12.524849 -20.071059,15.368545 -9.08185,3.007609 -18.96604,3.212185 -28.266998,1.12781 z m 14.683368,0.813399 c 6.42887,-0.646214 12.86034,-1.8708 18.56554,-5.025096 3.07422,-0.595704 3.94183,-2.84176 0.28871,-1.323935 -4.35505,2.901399 -9.35147,4.188071 -14.46835,5.005362 -8.55685,1.283682 -25.347984,-2.878971 -25.347984,-2.878971 0,0 0.972265,1.002581 9.414251,3.398635 3.793476,0.527336 7.733343,1.255151 11.547833,0.824005 z m 23.47727,-7.335591 c 2.28081,-2.492404 7.624599,-5.60593 7.623739,-8.009642 -2.061089,3.522155 -8.492729,5.431548 -9.556929,7.968389 0.58038,0.357967 1.32648,0.265114 1.93319,0.04125 z M 22.001419,70.032831 c -3.817553,-4.511828 -4.714753,-10.585077 -5.489401,-16.21628 -0.491398,5.84115 1.342182,11.815707 4.673047,16.615497 0.315145,-0.100447 0.671676,-0.0045 0.816354,-0.399217 z M 45.13315,54.613203 c 1.110953,-2.028952 -6.832765,-0.467094 -7.580638,-3.756084 -5.258999,-1.170815 0.467755,3.786719 2.990673,2.790363 0.972532,0.780188 3.483334,2.467447 4.589965,0.965721 z m 63.22418,-3.573533 c -0.87582,-4.609717 -3.99366,-1.470472 0,0 z M 35.116412,50.030513 c -1.254848,-2.625036 -12.449185,-4.912248 -4.997567,-1.524672 1.787837,0.618258 3.830769,2.215973 4.997567,1.524672 z m 64.504819,-1.320687 c 1.578749,-5.54639 9.564409,-0.972335 9.939069,-0.83473 -2.34122,-3.894532 -8.94663,-2.525869 -9.951219,-1.574956 -0.46224,0.6929 -2.06273,5.190766 0.0122,2.409686 z M 34.032608,46.522409 c -0.692675,-2.415873 -2.847771,0.336303 0,0 z m 1.84785,-2.855751 c -3.524439,-4.386299 -4.923088,2.191901 -0.03454,0.415599 z m -7.025194,-0.135963 c 0.460657,-3.335011 -3.503837,1.449492 0,0 z m 69.560507,-3.020724 c -0.52528,-3.992306 -3.04129,2.913766 0,0 z m 7.272589,-1.156493 c -1.24952,-4.311468 -8.939379,0.913622 -2.40263,0.739463 0.67711,0.01884 2.44601,0.495829 2.40263,-0.739463 z M 69.395771,90.034047 c -3.30587,2.108342 -1.95726,-6.406943 -2.84553,-0.842157 -1.447337,3.467257 -6.782433,-1.337662 -2.728212,-3.694449 3.102272,-5.727141 9.179082,3.713295 6.941432,5.16904 l -0.59927,-0.236827 z m 1.96896,-3.482636 c -2.37076,-7.595033 -10.813434,-2.570429 -11.641092,3.003904 -4.087247,-1.078906 -2.385143,-11.012911 -8.158899,-8.848758 -2.253487,3.210161 -6.25579,8.570278 -7.84974,1.687759 0.587466,-3.811838 -2.852682,-6.746601 -4.644395,-7.568918 4.900513,-3.951408 11.688994,-3.47908 17.571518,-2.783583 4.232058,0.68203 8.220576,2.960406 10.685058,6.478262 1.86472,2.792623 12.44302,-0.413915 5.42125,-0.335142 -6.62817,0.976924 3.03935,-2.674682 4.24301,-4.207563 4.78124,-3.404802 12.42407,-4.566889 16.86585,-0.04001 -0.7502,2.257487 -5.04535,3.329482 -6.05441,6.556059 -2.50941,1.452755 -5.3171,-3.835507 -7.52891,0.64869 -2.114,3.252867 -4.82043,13.97847 -8.90924,5.409304 z m 6.944,1.143761 c 0.19551,-5.515355 8.41304,-9.645852 8.6648,-1.91075 -1.38475,4.716147 -5.26799,0.788742 -3.24907,-0.630684 -0.88123,1.79212 -2.46756,4.746714 -2.6816,3.014746 -1.056,1.246095 -4.76277,2.668899 -2.73413,-0.473312 z m -23.832499,0.417383 c -1.743839,1.449732 -1.98513,-6.250372 -2.419183,-0.707216 -6.100298,1.664968 0.794312,-10.08324 3.089744,-3.316934 0.856339,1.043713 2.821137,7.269487 -0.670561,4.02415 z m 33.549999,-4.982168 c 0.66442,-4.094378 7.41528,-8.506664 6.45046,-1.244645 -0.93754,3.88468 -2.64262,-0.17304 -1.67663,-1.744417 -0.91639,2.06713 -0.87142,6.33258 -2.50366,4.127149 -1.19138,3.425806 -2.75065,0.924418 -2.27017,-1.138087 z M 40.506804,82.377855 c -1.590666,-0.792832 -0.917286,-4.984936 -2.371602,-1.372312 -4.653143,-2.768947 5.947752,-6.284559 3.702425,-0.194781 0.558929,1.741094 0.794061,4.458197 -1.330823,1.567093 z M 95.449851,77.25156 c -0.91358,-4.247262 3.81843,-7.68848 5.533179,-2.507078 0.89251,-1.392131 3.22619,-5.610631 2.36804,-1.389083 -1.11884,3.540528 -4.838889,4.857598 -5.486749,6.572277 -0.0229,-0.529612 -2.46228,3.910407 -2.12934,-0.503412 l -0.1244,-1.111329 z m 3.61676,-1.293599 c -0.51505,-1.875829 -0.27786,2.312476 0,0 z M 29.842803,73.608286 c -4.339471,-3.278428 4.328056,-3.855624 2.125433,0.221588 0.682707,3.0471 -1.313662,1.082347 -2.125433,-0.221588 z m -3.534081,-5.38723 c -2.148782,-5.723771 5.302516,3.21546 0.629328,0.978327 z m 44.410989,-1.087423 c -2.58045,-1.540808 -2.16827,-6.140318 1.00202,-3.097986 4.77405,0.1971 2.92358,6.016544 -1.00202,3.097986 z M 59.835688,66.697102 c -2.493894,-0.309832 -4.693094,-9.084562 -1.474585,-4.42028 1.015011,-4.076474 2.301622,6.798394 2.407319,0.440909 3.483848,-4.186312 3.992213,6.479627 -0.932734,3.979371 z m 28.806503,-3.051924 c 3.73253,-2.83741 0.0437,1.766016 -0.89195,1.16577 l 0.30743,-0.450186 z m -14.97991,-0.63987 c -2.85793,-1.09948 -7.934386,-6.364325 -6.53728,-7.7287 2.1527,6.469355 4.74124,-5.07361 -1.169824,-2.863834 -2.135755,1.991207 -6.834897,5.372272 -7.342299,-0.139112 -0.810867,-6.244116 7.148063,-9.672191 11.289463,-5.198326 3.05291,2.001325 -0.31427,-4.979002 3.87303,-5.03927 6.95594,-4.314818 16.46566,0.754896 17.95398,8.480343 1.86493,6.406971 -3.2065,13.304567 -9.82705,13.720924 -2.78807,0.365107 -5.68575,-0.04723 -8.24002,-1.232028 z m 7.56968,0.628124 c 3.89738,0.400615 9.52431,-5.436006 9.23871,-6.462245 -4.70337,4.175341 -13.4991,5.086229 -17.12099,-0.92629 -2.0474,-5.140598 -7.112,-6.349054 -11.419376,-3.358226 -5.503378,-0.279933 -0.246499,3.795361 1.606149,0.545054 4.248917,-4.883079 9.928417,1.527835 5.537857,5.571053 3.3899,2.530427 7.62743,5.572932 12.15765,4.630654 z M 46.104148,60.05083 c -2.720696,-4.143439 3.356511,-2.359229 2.490971,-0.225735 2.688574,-3.488599 4.554428,1.554704 0.32764,2.239558 -1.464714,0.74262 -2.93101,-0.428967 -2.818611,-2.013823 z m 16.76333,0.193664 c -4.353275,-1.513838 -11.606387,-2.637094 -14.06374,-4.71033 1.186035,-3.714173 -0.459936,-9.267913 5.75932,-6.8857 3.86359,-0.05489 1.131617,0.913883 -0.857792,1.253308 6.332232,-1.100651 0.503455,7.307743 6.676702,7.556786 3.431273,-0.48259 6.875853,-0.358539 6.654633,3.850666 -1.431329,-0.14316 -2.734742,-0.850806 -4.169123,-1.06473 z M 35.366419,56.981373 C 34.5295,55.033198 26.89694,55.763415 31.360676,52.218466 c 2.910493,1.159105 6.345992,3.195496 8.52614,4.878299 -0.769002,1.501108 -4.747056,2.575513 -4.520397,-0.115386 z M 9.9531418,52.869065 C 3.7364738,47.261693 2.9556168,38.320474 2.0174158,30.536001 6.5029968,28.3851 12.856947,32.276768 18.159333,31.619905 c 4.996655,-0.618136 14.694686,6.590478 5.785379,8.630171 -5.032777,3.420333 -4.995213,-5.176502 -10.599532,-4.899723 -2.304477,1.065192 -8.7374112,-4.968304 -7.9131342,-1.786173 3.606542,1.296842 3.622332,3.619533 1.282301,6.079459 -1.309979,3.562754 6.1151572,8.929801 3.7906162,2.513118 0.0514,-2.208287 2.081162,-6.300078 -1.3554882,-3.190338 0.9004672,1.174944 -1.324018,2.533395 0.460001,4.169951 -3.015543,-0.08949 -0.391826,-9.405755 3.8185682,-5.50606 -4.7535402,3.763741 -0.883271,9.086788 0.364902,13.646788 0.863791,4.713615 0.768269,7.772318 -3.8398042,1.591967 z m 3.1239912,0.899568 C 9.5294938,51.024703 6.8873688,46.596785 6.0984318,42.25136 5.3500238,38.58827 4.6006688,32.963335 2.4624448,30.825597 c 2.012814,4.777041 1.157406,9.775304 3.044056,14.647015 1.892208,2.433778 4.5529992,8.976779 7.5706322,8.296021 z M 22.11204,40.086674 c -0.275425,-2.394043 7.04251,-1.635523 4.964988,-3.210033 -2.766654,1.625351 -9.989576,-1.60039 -6.218473,3.874865 l 0.592658,-0.261096 z m 74.710451,15.641072 c -2.44524,-2.62342 5.664799,-6.973191 2.96851,-1.566697 -0.17029,1.465309 -1.66876,3.833741 -2.96851,1.566697 z m -3.52401,-5.814402 c -3.72618,-3.617925 3.07609,-7.288741 2.60199,-1.651175 1.00802,3.159177 -1.84634,7.106983 -2.60199,1.651175 z m 1.83562,1.874097 c 1.86674,-2.779863 -1.85653,-1.042373 0,0 z M 13.735568,47.620236 c -3.302747,-4.325553 6.501332,-4.691708 2.482918,-0.462994 -0.417129,1.207877 -2.309662,2.745492 -2.482918,0.462994 z m 1.427565,-0.264662 c 0.222575,-3.567908 -2.603261,0.0056 -0.161193,0.187988 z M 48.417384,46.129619 C 41.636005,43.878262 39.437668,34.918725 44.40482,29.764757 c 4.499859,-6.791435 13.279906,-3.269324 18.233719,0.790846 5.161922,4.598762 3.02609,13.533195 -3.55749,15.439581 -3.367099,1.411064 -7.27445,1.583248 -10.663665,0.134435 z m 13.881058,-8.209706 c 2.619251,-5.0724 -4.993465,-6.264083 -2.268192,-0.306563 0.343691,1.015105 1.789935,1.633685 2.268192,0.306563 z m 3.944079,5.953479 c -0.0481,-4.90464 1.63366,-10.230953 -2.247919,-14.414458 1.782576,-2.747727 7.039879,-0.07621 2.516359,1.326213 2.71271,-3.765391 -3.579034,2.033692 1.13597,0.730791 2.61209,1.954925 2.89626,8.08122 3.97603,10.423113 -1.13555,1.765659 -3.31782,3.234763 -5.38044,1.934341 z m 15.31287,-4.97537 c -3.27416,0.228276 -10.89528,2.045013 -9.92437,-2.937767 3.8112,0.414166 -0.923,-8.639454 -0.82853,-2.72282 -1.30357,1.891209 -1.36903,-5.640242 -1.1439,-7.319341 1.07977,-7.865118 10.57154,-4.470727 13.31066,0.418439 2.87111,2.752674 7.05727,16.485435 -1.41386,12.561489 z m 21.060259,-6.801555 c 1.95854,-3.63349 -7.110819,-7.741982 -0.81842,-8.314842 2.94097,2.465587 1.27055,6.558628 2.73507,9.516497 0.40383,0.815604 0.95946,1.5749 1.6297,2.190581 1.47579,0.629958 4.78411,-1.535344 2.34686,1.714309 -2.33135,-1.018758 -6.87752,-1.438607 -5.89321,-5.106545 z m 0.52683,-3.953054 c 1.86118,-3.376571 -4.938769,-5.477619 -2.0876,-2.372885 1.04335,-0.02098 1.75938,2.624252 2.0876,2.372885 z m -6.155699,5.449208 c -2.61571,-4.15802 7.876309,-3.635211 3.477829,0.493091 -1.190599,0.110406 -2.296319,-0.803851 -3.477829,-0.493091 z m 3.662519,-0.399117 c -1.615679,-2.197373 -5.766639,0.532017 -1.371499,-0.02516 0.40818,0.08107 1.069969,0.668131 1.371499,0.02516 z m 4.59004,-0.918839 c -0.58487,-3.661972 -0.79666,-12.759534 -5.626039,-10.863423 -1.72537,2.315453 -2.33596,12.307661 -5.71408,6.263582 -2.04744,-5.06757 3.87242,-11.634137 8.497759,-11.617482 1.36945,5.205199 5.50384,9.530555 6.20425,15.021655 0.71898,2.650638 -2.00226,2.317942 -3.36189,1.195668 z m -8.720429,-3.274597 c 1.83956,-3.264533 -5.68755,-4.742328 -1.37367,-1.033323 0.25591,0.751763 0.6498,3.075326 1.37367,1.033323 z M 64.835572,21.907572 c 0.932699,1.528184 1.386289,7.834262 0.139594,3.069067 -3.09487,-2.45135 -1.248687,-6.396971 1.759995,-2.794593 1.98898,2.265005 0.92636,6.787504 -0.54353,1.860783 -0.340986,-0.771519 -0.73223,-1.5479 -1.356059,-2.135257 z m -0.173647,-1.529783 c 3.410416,-2.573582 2.445186,-9.476488 8.534346,-9.63476 5.8391,0.01574 -4.26817,1.889122 -4.29051,5.49426 -1.67951,2.250568 0.68721,8.248008 -3.397854,4.166629 -0.271359,-0.143416 -0.563373,-0.0252 -0.845982,-0.02614 z m -6.917231,-4.555231 c -3.857319,-0.663922 6.588744,3.736825 0.498632,1.771414 -2.534305,-1.059498 -8.339025,-3.789715 -2.404491,-4.297985 3.380253,-1.179961 12.375206,-1.9588 7.832302,3.608693 -1.872104,1.459742 -4.301285,0.02111 -5.926443,-1.082122 z m 13.090377,-0.735327 c 2.16619,-2.716224 -1.39149,3.471406 0,0 z m 5.88822,-2.967821 c 2.51997,0.148027 2.03669,2.923875 0,0 z"
      id="path4755"
      inkscape:connector-curvature="0"
      sodipodi:nodetypes="cccccccccccccccccccccccccccccccccccccccccccccccccccccccccccccccccccccccccccccccccccccccccccccccccccccccccccccccccccccccccccccccccccccccccccccccccccccccccccccccccccccccccccccccccccccccccccccccccccccccccccccccccccccccccccccccccccccccccccccccccccccccccccccccccccccccccccccccccccccccccccccccccsccccccccccccccccccccccccccccccccccccccccc"/>
</svg>
